<!-- Generated by IcoMoon.io -->
<svg version="1.1" xmlns="http://www.w3.org/2000/svg" width="24" height="24" viewBox="0 0 24 24">
<title>java_file</title>
<path d="M5 2v7h-3v9h3v4h16v-4h2v-9h-2v-2l-5-5h-11zM7 4h8v4h4v1h-12v-5zM5.996 11h1v3.5c0 0.828-0.672 1.5-1.5 1.5s-1.5-0.672-1.5-1.5h1c0 0.276 0.224 0.5 0.5 0.5s0.5-0.224 0.5-0.5v-3.5zM9.357 11h1.301l1.354 5h-1.064l-0.258-1h-1.369l-0.258 1h-1.051l1.346-5zM12.010 11h1.053l0.939 3.646 0.945-3.646h1.064l-1.355 5h-1.301l-1.346-5zM17.354 11h1.301l1.355 5h-1.064l-0.258-1h-1.369l-0.258 1h-1.053l1.346-5zM10.004 12.354l-0.426 1.646h0.854l-0.428-1.646zM18 12.354l-0.424 1.646h0.852l-0.428-1.646zM7 18h12v2h-12v-2z"></path>
</svg>
